<?xml version="1.0" encoding="iso-8859-1"?>
<!-- Generator: Adobe Illustrator 16.0.0, SVG Export Plug-In . SVG Version: 6.00 Build 0)  -->
<!DOCTYPE svg PUBLIC "-//W3C//DTD SVG 1.1//EN" "http://www.w3.org/Graphics/SVG/1.1/DTD/svg11.dtd">
<svg version="1.1" id="Capa_1" xmlns="http://www.w3.org/2000/svg" xmlns:xlink="http://www.w3.org/1999/xlink" x="0px" y="0px"
	 width="54.236px" height="54.236px" viewBox="0 0 54.236 54.236" style="enable-background:new 0 0 54.236 54.236;"
	 xml:space="preserve">
<g>
	<g>
		<path d="M8.25,31.681v10.875c0,2.343,1.907,4.25,4.25,4.25c2.343,0,4.25-1.907,4.25-4.25V31.681c4.894-1.773,8.25-6.5,8.25-11.75
			c0-6.893-5.607-12.5-12.5-12.5S0,13.038,0,19.931C0,25.181,3.357,29.907,8.25,31.681z M14.75,41.555h-4.5v-5.833h4.5V41.555z
			 M12.5,44.805c-0.88,0-1.635-0.513-2.005-1.25h4.01C14.136,44.292,13.38,44.805,12.5,44.805z M12.5,9.43
			c5.79,0,10.5,4.71,10.5,10.5c0,4.622-3.097,8.763-7.532,10.067c-0.426,0.125-0.718,0.516-0.718,0.959v2.765h-4.5v-2.765
			c0-0.443-0.292-0.834-0.718-0.959C5.097,28.692,2,24.552,2,19.93C2,14.141,6.711,9.43,12.5,9.43z"/>
		<path d="M12.5,29.433c5.247,0,9.515-4.269,9.515-9.515s-4.269-9.515-9.515-9.515c-5.246,0-9.515,4.269-9.515,9.515
			S7.254,29.433,12.5,29.433z M12.5,12.403c4.144,0,7.515,3.371,7.515,7.515s-3.371,7.515-7.515,7.515s-7.515-3.371-7.515-7.515
			S8.356,12.403,12.5,12.403z"/>
		<path d="M21.771,37.94c0,1.176,0.828,1.922,2.029,1.922c1.042,0,1.655-0.347,1.949-1.201l1.148-3.203h7.048l1.121,3.203
			c0.32,0.854,1.014,1.201,1.975,1.201c1.121,0,2.057-0.854,2.057-1.922c0-0.48-0.268-1.254-0.428-1.681l-5.285-14.709
			c-0.48-1.361-1.361-1.602-2.35-1.602h-1.041c-1.068,0-1.762,0.347-2.136,1.335l-5.66,14.976
			C22.038,36.686,21.771,37.46,21.771,37.94z M30.447,24.701h0.054l2.482,7.714h-5.125L30.447,24.701z"/>
		<path d="M48.256,31.134l-2.375,0.268c-2.99,0.346-5.447,1.254-5.447,4.483c0,2.456,2.189,3.978,4.406,3.978
			c2.055,0,3.816-0.586,5.338-2.269c0.053,1.2,0.614,2.269,2.297,2.269c0.934,0,1.762-0.613,1.762-1.494
			c0-0.615-0.4-0.988-0.4-2.617v-6.539c0-2.803-2.589-4.004-6.326-4.004c-4.004,0-6.193,1.975-6.193,3.523
			c0,0.802,0.667,1.495,1.654,1.495c1.549,0,1.629-2.135,4.513-2.135c1.308,0,2.456,0.48,2.456,1.602
			C49.938,30.812,49.191,31.026,48.256,31.134z M49.938,34.471c0,1.442-1.307,2.83-3.443,2.83c-1.335,0-2.162-0.72-2.162-1.601
			c0-1.176,0.881-1.683,2.51-1.922l1.414-0.214c0.454-0.079,1.256-0.214,1.682-0.614V34.471z"/>
	</g>
</g>
<g>
</g>
<g>
</g>
<g>
</g>
<g>
</g>
<g>
</g>
<g>
</g>
<g>
</g>
<g>
</g>
<g>
</g>
<g>
</g>
<g>
</g>
<g>
</g>
<g>
</g>
<g>
</g>
<g>
</g>
</svg>
